<svg xmlns="http://www.w3.org/2000/svg" viewBox="0 0 44.246 11.727">
<path fill="#fff" d="M10.002.377q-.011.033 0 .088.01.044-.011.066-.055.055-.077.066-.022.011-.067.022-.132-.01-.154 0H9.66Q9.572.586 9.55.597q-.011.011-.033.011-.11 0-.144.022-.022.022-.055.044-.055-.01-.121.011-.055.022-.11.011-.033.055-.121.067.01.055-.023.077-.022.022-.01.088-.056.154-.078.242-.022.078-.033.166 0 .033.011.077.011.033.011.055-.022.187 0 .22-.022.023-.033.056v.066q-.01.077 0 .165.011.077-.01.144-.012.099-.023.12 0 .023.011.078-.077.1-.066.11.011.011.022.033v.144q0 .033-.022.055-.011.154 0 .22L8.745 3q-.022.034-.022.089 0 .044-.011.12-.011.111 0 .122 0 .022-.022.066-.011.044-.011.1.022.099.022.12.011.023.011.045-.011.077-.011.1.011.01.011.032 0 .033-.011.088 0 .044.022.1-.022.12-.033.22 0 .1.01.188.012.044.012.066.011.022 0 .055-.044.11-.055.132-.011.022-.011.044.033.066.022.1 0 .021.022.043-.044.045-.033.1.022.044.033.11-.011.077-.011.132.01.044.01.088v.078q.012.033.012.066l.022.11q.022.044 0 .121.044.1.066.122-.01.099 0 .143.022.044-.022.066.022.022.033.1.022.065.022.12 0 .067.022.11.022.045.033.1.022.143.011.21 0 .066.022.132.011.154.033.253.034.088.045.188-.022.077-.011.099.01.022.01.044 0 .132.012.154.01.022.01.055 0 .067.012.1l.022.044q0 .099.01.11.012 0 .012.022.01.088 0 .176 0 .078.01.133.056.121.078.143.022.011.044.055.1.022.21.044.11.011.231.033l.143.022q.066 0 .133-.044l.044.044q.033.011.055.044.088.012.143.045.055.022.11.055.033.11-.022.187-.066.033-.21.033-.142.066-.209.077-.055.022-.11-.01-.055.021-.099.021-.044.011-.066.056-.044-.023-.077-.012-.033.012-.078.012-.077-.023-.154-.034-.066-.01-.11.034-.066-.023-.11-.034-.033 0-.067.034-.11-.012-.143-.034-.033-.022-.088-.022-.088.011-.1 0-.01-.01-.032-.01-.044-.012-.1-.012h-.253q-.077.011-.165-.022-.067 0-.1-.01-.033-.012-.044.01-.077-.022-.165-.022-.088 0-.143-.044-.1.044-.155.022-.044-.022-.099-.022-.132.011-.154 0-.022-.01-.044-.01l-.155.032q-.143.022-.176.022-.022 0-.044.011l-.11.044q-.045.033-.122.011-.176.022-.264.056-.078.044-.166.055-.132 0-.165-.022l-.088-.056q-.011-.055-.022-.077 0-.022.01-.077.023-.044.067-.055.044-.011.055-.066.055.022.1-.011.054-.033.11-.022.021 0 .088-.011.077-.011.099-.022l.132-.011q.055.01.077.01.033 0 .055-.01.056-.011.11-.033.056-.033.11-.022.056-.022.09-.045.032-.033.098-.022.022-.033.055-.033.034-.01.067-.033.077-.066.088-.077.01-.01.033-.01.044-.056.077-.122t.077-.121q-.033-.078-.01-.155.032-.088-.023-.143.022-.066.022-.121v-.155q0-.055-.022-.099-.01-.044-.01-.1l-.023-.11v-.132q.011-.033-.011-.077-.011-.044-.011-.066.011-.121 0-.121-.011-.011 0-.033-.044-.188-.033-.254.022-.077 0-.143-.022-.088-.022-.1.01-.01.01-.044 0-.033-.021-.055-.011-.033.033-.066-.011-.088-.033-.143-.011-.121-.022-.121v-.011l-.011-.177q-.022-.121-.011-.132.01-.011.01-.033l-.032-.143q.01-.045.01-.089t-.032-.099q.022-.033.01-.088-.01-.055 0-.11.023-.066.012-.1-.011-.033-.011-.055-.022-.088-.022-.132 0-.088.01-.165.023-.078.012-.155-.011-.088-.011-.187v-.21l-.022-.066q-.011-.033-.011-.066 0-.044.01-.077.012-.033.012-.066t-.011-.066v-.055q.01-.122.01-.166.012-.044.034-.088 0-.11-.011-.143 0-.044.022-.066-.022-.089-.022-.155 0-.099.01-.132.012-.033.012-.066-.011-.121.01-.188.012-.099 0-.132-.01-.044-.021-.077.033-.066.033-.121 0-.055.033-.11-.022-.056-.022-.1.01-.044 0-.121-.011-.055 0-.077.01-.022.01-.044.012-.11-.01-.21-.011-.11.01-.231-.054-.022-.065.055-.011.066-.033.121-.033.132-.044.132-.012-.01-.012.011.012.044-.01.078-.023.022.01.066-.066.11-.099.275-.055.155-.044.243-.033.022-.033.077t-.033.1q-.022.01-.033.076 0 .056-.022.1-.055.055-.055.154 0 .1-.055.154.01.055-.011.1-.022.044-.044.099-.023.154-.034.165-.022.077-.033.1l-.022.043q-.044.133-.055.188 0 .055-.044.077-.044.121-.077.176-.022.044-.022.133-.066.044-.077.132-.011.088-.055.154.022.033 0 .066-.011.022-.022.056-.022.088-.034.099-.01 0-.022.022l-.033.132q-.022.055-.044.088-.01.033-.022.089-.01.033-.022.088-.01.044-.01.088-.056.022-.045.088.011.066-.044.088-.022.144-.1.199.012.044-.01.077-.011.033-.033.066-.022.033-.033.077 0 .044-.034.055-.066.11-.066.199-.088.088-.088.21-.033.098-.055.132-.022.022-.044.055-.022.143-.066.21-.044.054-.077.142-.044.133-.044.177l-.056.121q-.022.055-.033.1-.01.032-.033.087-.01.089-.033.11-.022.012 0 .034-.033.121-.088.121.022.066 0 .132-.022.067-.044.144-.011.088-.033.099-.011.01-.011.033-.022.055-.022.11 0 .044-.022.1-.044.12-.066.165-.045.099-.045.143 0 .033-.01.066-.056.144-.045.22.011.067-.01.133-.023.077-.056.11-.022.044-.044.1-.055-.023-.077-.012-.011.023-.044.045-.088-.011-.121-.078-.034-.055-.089-.099-.01-.088-.022-.132 0-.044-.022-.1l-.055-.132q-.077-.12-.088-.143-.011-.033-.033-.077-.011-.121-.022-.154-.011-.034-.022-.078l-.044-.11q-.011-.055-.066-.088-.011-.055-.034-.088l-.044-.088-.044-.089q-.01-.055-.044-.088-.01-.11-.044-.154-.022-.055-.044-.132-.022-.023-.033-.067 0-.044-.033-.066v-.088q.01-.022-.011-.033-.044-.044-.055-.088-.011-.055-.055-.1 0-.088-.034-.132-.022-.055-.022-.143-.044-.044-.066-.1-.01-.054-.044-.11-.022-.033-.044-.055-.01-.033-.022-.088-.044-.099-.055-.21-.088-.087-.11-.22-.022-.132-.122-.21-.01-.087-.033-.11-.01-.033-.044-.055-.022-.11-.044-.132-.01-.022-.01-.044-.012-.033-.012-.066t-.01-.055l-.067-.144q-.011-.033-.011-.066 0-.044-.022-.099-.011-.121-.033-.143-.022-.022-.033-.044-.022-.1-.044-.122-.011-.022.01-.044-.054-.077-.099-.176-.044-.11-.077-.22-.033-.122-.077-.221-.033-.11-.077-.199-.022-.066-.022-.11t-.022-.077q-.011-.055-.022-.088-.011-.044 0-.077-.077-.088-.088-.21-.078-.187-.122-.264-.033-.089-.077-.177-.022-.033-.033-.055 0-.033-.022-.055l-.055-.165q-.011-.077-.033-.144-.022-.055-.044-.088-.011-.033-.022-.077-.044-.11-.089-.154-.033-.055-.055-.1-.066-.132-.077-.143-.022-.022-.055-.066-.022-.055-.055-.088-.022.022-.011.066l.033.066q-.011.055.011.1.022.043.022.099 0 .033-.022.088-.011.055-.011.11 0 .044.011.088.022.033.011.088-.011.155-.022.22v.155l.022.166q.022.077.011.143-.033.121-.044.132 0 .011-.022.022.066.088.01.132.012.188.023.287.022.1.011.21.011.165.022.22.011.055.011.11 0 .044-.022.088-.011.045 0 .078 0 .099.011.132.022.033.022.055.011.055 0 .1 0 .032.011.076.011.122 0 .133-.01.01-.01.022-.012.022 0 .055.01.033.01.066.011.165 0 .199-.01.022.011.066-.01.154-.01.187.01.055 0 .1v.087l.01.133q-.022.077-.01.099.01.011.01.033.011.055 0 .1-.01.032-.01.087 0 .078.01.155.011.066-.033.132.033.088 0 .199.044.088.011.187.022.088.011.143-.044.144-.033.177.022.033.011.088-.033.077-.033.1.011.01.022.032 0 .033-.011.066v.066q.011.089 0 .122v.077q-.033.121-.022.132.022 0 .011.022-.011.033-.033.055-.011.011 0 .066.044.122.066.199.022.077-.01.132l.043.044q.022.022.033.077.077.089.077.1.011.01-.01.033.054.022.077.044.033.022.077.044.055.088.099.1.044.01.044.065.088.066.11.089.033.01.044.044.055.01.1.033.044.01.066.066.055-.022.11-.011l.11.022q.055.01.121 0 .067-.011.11 0 .078.01.122.044.055.033.077.077-.01.055-.022.1 0 .054-.022.099-.1.033-.187.033-.055-.011-.1-.044-.044-.022-.077-.045-.088.034-.132.034-.044.01-.088 0-.121-.045-.177-.045-.055.011-.11 0-.088-.033-.143-.022-.055.011-.088-.01-.078-.034-.188.01-.11.044-.176-.01-.044.01-.1 0-.055 0-.11-.012-.022.011-.055.022-.022.022-.055.033-.055.023-.143 0-.077-.01-.143-.01-.133 0-.133.055-.121.022-.21.01-.087-.01-.176 0-.143.023-.176 0-.022-.01-.044 0-.011-.066-.033-.11-.033-.033-.022-.12.055-.056.165-.1.088.033.254.01.066-.01.12-.01.056-.011.1.01.077-.054.1-.065.021-.011.055-.022.033-.022.055-.044t.066-.033q.044-.056.055-.078.01-.022.033-.044.077-.121.088-.143.011-.022.033-.055.022-.243 0-.397-.022-.165.011-.32-.01-.088-.033-.11-.022-.022.011-.044-.022-.143 0-.177.033-.033.055-.088v-.099q0-.055.022-.077l-.01-.132q0-.044.01-.089.011-.044.011-.099 0-.033-.01-.066-.012-.044-.023-.077v-.055q.011-.033.011-.066.033-.089.022-.1-.01-.022-.01-.033 0-.055.01-.088.011-.033.011-.077.011-.033 0-.066 0-.044.045-.066-.045-.133-.034-.133.023-.01.023-.022-.023-.099-.012-.099.012-.01.012-.022 0-.044-.023-.077-.022-.033 0-.077-.022-.11-.022-.188 0-.077.022-.121-.055-.21-.033-.386v-.066q0-.033.022-.066-.022-.088-.022-.143l.011-.122q.011 0 .011-.022-.022-.088-.01-.11.01-.033.01-.055l-.022-.176q0-.045-.01-.078v-.154q.01-.033.01-.066 0-.11-.01-.21-.012-.11-.023-.253 0-.066-.01-.121-.012-.067 0-.122 0-.055.01-.121.022-.066 0-.132 0-.11.044-.177-.033-.055-.022-.099.011-.055.011-.121-.01-.055-.01-.11v-.122q0-.077-.012-.154-.01-.077-.01-.154 0-.089.01-.1.011-.01.011-.033 0-.044-.01-.077-.012-.033-.012-.077.011-.088-.01-.132-.023-.044-.023-.144.011-.099-.022-.154-.055.022-.132.011-.066-.022-.143-.01-.067.01-.144.01-.077 0-.132-.044-.132.033-.176.022Q.345.994.278.994q-.044 0-.077.011T.124.994Q.036.884.047.862q.01-.022 0-.044Q.08.729.124.708.179.673.278.673q.055.022.067.022Q.367.686.4.686.576.75.63.75.696.74.74.773.885.729.973.75q.088.012.121-.033.243.045.42.056.175.01.308-.023.11 0 .165.012h.11q.133-.012.155 0 .033.01.055.01.033.012.066.012h.254q.088-.011.165-.034.055.023.1.012.054-.012.11.01.143.012.187.177 0 .066.022.088.022.011 0 .055l.077.11q.022.067 0 .122.044.022.055.077.022.044.055.066-.022.033-.01.066.021.033.021.077.044.11.088.177.011.022.023.055.01.033.033.055 0 .044.01.066.012.011.012.055.022.044.055.077.033.023.01.067.056.11.056.154.01.033.044.055.011.088.022.1.022 0 .044.021.022.022.011.066 0 .034.011.056.066.143.088.176.078.132.067.187-.011.056.044.078.044.12.044.165.066.121.077.165l.022.1q.066.099.055.11-.011 0 0 .01.033.133.044.155l.022.044q.022.077.044.166.022.077.077.132.034.121.045.187.01.066.044.1-.011.099.044.176.055.066.099.143.044.088.033.133.033.022.033.066.011.044.066.055.055.176.077.253.034.078.067.133.022.077.044.099.022.01.055.033.022.1.044.121.044.066.055.1.011.032.033.055l.066.132.022.044q.1.044.1.022l.022-.066q.01-.022.022-.055.022-.044.066-.066 0-.067.066-.11.01-.078.044-.166.044-.088.066-.143.033-.089.022-.1 0-.022.011-.044.033-.044.033-.066 0-.033.033-.044-.01-.077.011-.132.033-.055.045-.133.055-.187.11-.308.066-.132.088-.265l.044-.132.022-.066q.022-.066.055-.133.033-.066.055-.132.022-.033.022-.066.011-.044.044-.066 0-.1.067-.188.022-.066.033-.132.022-.066.055-.132.01-.121.033-.132.022-.022.022-.044.033-.089.033-.155.066-.088.055-.198.066-.066.066-.188.022-.088.033-.11l.022-.044q.011-.121.022-.132.045-.144.067-.199.033-.066.055-.121.022-.055.01-.11 0-.066.023-.133.022-.11.033-.132.022-.033 0-.055.044-.022.033-.066-.011-.044.011-.077.033-.033.033-.066.011-.045.033-.067.066-.154.088-.253.022-.11.077-.188-.01-.044.011-.132.023-.121.045-.132.022-.022.033-.066.077-.011.132-.033.055-.033.121-.044l.044.044q.033.01.055.033.089-.022.177.01.1.034.198-.021.066.022.166.022.11-.011.21-.011.076-.011.098 0 .022 0 .055-.022.022.022.056.022.044-.011.066.01l.154-.032q.1.033.11.022.022-.022.055-.033.144-.011.22-.011.2 0 .31-.011.11-.022.209-.044.1.01.11.033.022.01.044.01.089 0 .11.023.034.022.089 0zm4.284 3.483l.055.11q.066.11.077.155l.022.066q.022.044.033.077.022.033.033.066.011.056 0 .122-.01.066.044.099.011.055 0 .077 0 .022.022.077 0 .121.012.133.01.01.01.022-.01.066 0 .11.012.044.012.077 0 .022-.011.055v.066q0 .055.01.088.012.034.034.067-.033.12-.022.165.022.044.022.1-.011.131-.011.176.01.033-.011.055.01.099 0 .11-.011.01-.011.033.01.265-.045.386.034.1.011.132-.01.022-.01.044 0 .066.01.122.012.055-.033.099.022.088.011.099v.033q.011.088-.01.132-.012.044-.012.077v.122q.011.077-.01.143 0 .088.01.165.022.067-.01.11.032.045.01.1-.022.055.033.1 0 .098-.022.242-.022.132 0 .242.022.055.045.088.022.022.044.067.044.01.11.022.077 0 .143-.011h.088q.055-.011.089-.023.022-.022.044-.033.033-.022.066-.022.088-.11.11-.143l.066-.066q.011-.143.044-.143-.01-.122.066-.155.144-.01.144.033.077.11.121.11-.022.023-.044.056t-.022.088q-.1.132-.132.198-.033.055-.1.1-.022.088-.055.132l-.077.1q-.11.021-.21.054-.088.033-.23.022-.122.011-.243-.033-.11-.044-.21-.077-.055-.022-.077-.055-.011-.044-.066-.044-.055-.1-.077-.11l-.044-.045q-.012-.077-.089-.099l-.066-.11q-.022-.066-.066-.121-.011-.066-.033-.122-.022-.055-.022-.132l-.066-.11q-.022-.066-.044-.121-.033.066-.055.077l-.034.033q-.066.143-.077.154-.077.088-.077.1 0 .01-.01.032-.045.078-.1.1 0 .055-.033.077-.022.022-.033.066-.066.022-.11.088-.034.055-.067.133-.033 0-.055.022-.01.01-.066.01-.022.034-.066.067-.033.022-.088 0-.044.077-.166.077-.165.033-.231.066-.055.044-.121.011-.056.044-.133.055-.077.011-.132.044-.1-.044-.11-.033-.011.022-.033.033-.055-.022-.1-.01-.044.01-.099-.034-.055 0-.11-.01-.044 0-.1-.012-.12-.033-.176-.077-.055-.033-.12-.011-.089-.033-.144-.077-.055-.044-.143-.066l-.11-.122q-.012-.022-.034-.022l-.077-.143q-.1-.077-.1-.088.012-.011 0-.022l-.12-.177q-.023-.033-.056-.055l-.044-.044-.033-.165q0-.066.011-.121-.01-.133-.022-.177-.01-.044-.01-.1l.021-.11q.022-.065.033-.12.011-.067 0-.11 0-.045.033-.078-.01-.088.022-.121.045-.033.022-.088.067-.023.089-.11.022-.1.099-.122.01-.077.055-.11.055-.044.077-.121.055-.023.077-.056.033-.044.1-.044.066-.099.077-.099.022-.011.022-.033.121-.022.143-.044.033-.022.055-.033.11-.033.122-.044.01-.011.033-.011.143-.033.22-.055.077-.022.132-.033.089.033.1.01.01-.022.033-.033.055-.022.088-.022.033 0 .11-.01.11-.023.132-.012.022.011.044 0 .067-.01.122-.044.066-.033.121-.044.033-.01.066 0h.066q.122-.01.155-.01.044-.012.066-.012.055-.01.099-.033.044-.022.1-.033l.11.011q.01-.011.033-.022.099-.022.187.033.033-.022.066-.022t.066-.022q-.033-.187-.01-.254.021-.077.021-.154 0-.022-.01-.055v-.066q-.045-.155-.045-.166-.01-.033-.01-.066t.021-.088q-.033-.11-.022-.143.011-.044.011-.077-.033-.11-.033-.133.011-.033.011-.055-.01-.055-.022-.088-.01-.044.011-.088-.022-.044-.033-.088-.011-.045-.033-.089-.055-.154-.088-.165-.033-.022-.044-.077-.055-.022-.077-.044-.023-.033-.045-.055-.132-.078-.176-.067-.044 0-.066-.033l-.166-.044q-.033-.01-.044-.044-.143-.033-.297-.01-.044.01-.077.032-.022.022-.067.033-.055.011-.12.011-.056-.01-.111.011-.044.011-.077.044-.033.023-.088.023l-.089.066q-.033.022-.099.033-.231.055-.287.099-.077.077-.143.1-.055.043-.088.076-.022.022-.044.055-.066.133-.1.221-.032.088.023.176.033.166.055.243.022.077.066.143.011.033.055.044.044 0 .044.044.066.022.121.056.067.033.144.033.044 0 .077-.022.033-.023.088 0 .077-.067.088-.067.011 0 .022-.01.022-.023.044-.056.034-.033.034-.066 0-.11-.166-.143-.022.055-.033.11-.01.055 0 .121-.077.022-.143.011-.066-.022-.121-.044-.023-.044-.023-.121.012-.088.034-.143.066-.055.066-.078l.022-.044.132-.055q.066-.022.088-.022.055 0 .088.033.034.022.089 0 .044.044.077.088.033.034.077.067.022.11.044.242.033.121-.033.21-.022.033-.066.044-.033.01-.055.055-.055-.011-.077.01-.022.023-.067.034-.022.022-.066.033-.033 0-.055.022-.187.033-.33 0-.11-.022-.199-.077-.088-.066-.176-.088 0-.044-.033-.066-.034-.023-.056-.056-.033-.143-.055-.187-.022-.044-.044-.077 0-.077-.022-.143-.044-.078-.022-.133 0-.077.022-.121.011-.165.055-.22.022-.1.044-.11.022-.012 0-.034.078-.066.133-.132.055-.066.12-.121.155-.045.166-.089.055 0 .088-.022.045-.033.1-.033.022-.044.088-.044.077-.01.1-.077.032.055.098.011.077-.044.133-.011.044-.011.055-.033.022-.033.055-.055.044 0 .132-.033.121-.033.121-.022h.033q.144-.022.188-.022.055-.011.077-.011.077.01.11-.011.044-.022.1.033.099.01.12.01.034-.01.056 0 .21.034.298.089.099.055.187.055.154.088.32.1.099.065.099.087 0 .011.022.033l.1.078q.01 0 .021.01.122.078.133.1l.033.033q.077.121.099.132.022 0 .022.033zm-1.367 1.93q-.121.022-.154.055-.034.022-.078.022-.044-.011-.077 0h-.055q-.066.088-.11.088t-.1.011q-.099.044-.132.044-.022 0-.044.011l-.088.044q-.033.011-.066.044-.077.11-.11.144-.022.033-.067.055 0 .044-.022.088l-.022.066q-.055.055-.055.11 0 .044-.01.066-.045.056-.045.078t-.01.033q-.056.066-.067.088v.033q-.088.132-.077.143.022.011.022.055-.022.045-.022.089v.066q-.011.11-.022.121-.011.011-.011.044.022.022.01.066 0 .044.012.1l.022.066q.022.033-.011.066l.077.165q.077.11.077.143 0 .034.011.056l.066.066q.044.022.066.077.1.044.1.066 0 .022.01.044.056 0 .11.022.056.022.122.022.11 0 .144.022.033.011.077-.01.055-.023.143-.012.088 0 .165-.022.11-.055.144-.055.033 0 .055-.01.088-.045.088-.067.011-.022.055-.011.077-.077.1-.132.088-.033.11-.122.022-.099.11-.12.022-.09.066-.122.011-.033.011-.066.011-.033.044-.055.033-.11.044-.155.011-.055.044-.099.022-.022.055-.022.045 0 .067-.022 0-.077-.022-.143-.023-.078-.023-.166V6.86q.011-.044 0-.1-.033-.076-.033-.098v-.056q-.033-.12-.022-.176.011-.055.011-.11-.044-.155-.044-.243.011-.077-.01-.088-.012-.011-.012-.033 0-.055.011-.088.011-.044-.01-.088-.144-.022-.287.01-.144.023-.331 0z"/>
<path fill="#fff" d="M20.356 3.596q-.011.088-.033.099l-.044.022q-.133.077-.177.088-.033.011-.099.022-.055.022-.121 0-.055-.033-.1-.022-.021-.033-.066-.044-.033-.022-.055-.044-.055-.132-.055-.154 0-.033-.022-.055.022-.056.022-.089V3.32q.022-.022.055-.022.044-.01.055-.055.045.022.078.011.044-.022.088 0 .077.11.055.121-.022.011-.011.044.055.067.044.089-.011.01.033.022.077-.033.088-.022.022 0 .044-.011.1-.122.122-.21.022-.088 0-.165L20.135 3l-.044-.044-.044-.044-.044-.044-.121-.033-.1-.022q-.033-.022-.077-.022h-.055q-.044 0-.099.022-.055.011-.1.033-.098.044-.142.088-.034.044-.089.066-.022.056-.044.089-.022.033-.044.088-.033.066-.033.1.011.021 0 .043-.022.154-.066.21.033.143.066.187.044.033.033.1.022.043.055.076.044.022.077.045 0 .055.044.077.056.01.067.077.066.01.11.044.044.033.077.077l.066.088q.044.033.1.044-.012.056.01.089.022.022.045.055.033.088.044.099.022 0 .033.022.088.121.099.165.011.044.055.078l.088.231q-.01.11.011.154.033.033.011.067.044.055.044.154-.022.1-.01.132.01.022.01.044 0 .044-.022.088-.01.045-.01.1.01.088 0 .099v.033q-.034.033-.034.066.011.033 0 .055-.022.088-.077.155-.055.066-.077.154-.033.022-.055.044-.011.011-.044.033.01.055-.022.077-.022.011-.011.077-.1.067-.177.155-.077.088-.22.11-.088.088-.122.1-.022 0-.033.032-.088 0-.176.044-.033.011-.066.011t-.055.011q-.11.067-.155.067-.033-.011-.055 0-.11 0-.176.033-.055.033-.1.033-.054.01-.099 0-.044-.022-.099-.011-.033.01-.066.033-.022.01-.055.022h-.1q-.043 0-.087.01h-.11q-.056-.01-.089-.01-.044-.011-.11 0-.055 0-.077-.033-.077.033-.144 0-.066-.044-.143-.066-.132-.022-.165-.033-.022-.023-.044-.034-.089-.044-.1-.022-.01.011-.033.011-.165-.01-.21.034-.043.033-.11.01-.088.056-.176.089-.088.033-.154.099-.022.132-.055.165-.022.022 0 .089-.066.088-.077.099-.011 0-.011.022l.044.132q.11.1.11.11.066.011.088.044.022.033.066.011.188.067.331.045.055-.011.1 0 .054.01.11.01.066 0 .143-.01.088-.011.165-.023.1-.044.11-.022.011.011.033.011.177-.022.22-.01.045 0 .1-.034.132 0 .188-.01.066-.012.12-.034.122.011.188-.01.066-.023.133-.023.12.044.22.044t.176.022q.089.044.1.033.022-.01.044-.01.022.021.055.032.033 0 .055.023.143.022.176.044.033.01.055.022.056.044.122.066.066.01.099.022.154.066.21.11.066.033.132.055.099.055.132.088l.066.045q.088.033.1.044.021 0 .032.01.045.023.056.078.022.044.055.088.022.033.044.055.033.022.055.044 0 .055.044.1.044.055.066.11.022.044.011.088 0 .044.033.077.022.132.022.21 0 .077.055.11-.022.055-.033.121 0 .066.022.121-.01.033-.033.066-.01.034-.033.078-.022.088-.033.11 0 .033-.022.055-.077.143-.11.187-.022.044-.055.078-.088.143-.122.187l-.11.143q-.033.055-.066.066-.033.022-.055.078-.033.01-.055.033-.022.022-.055.033-.022.066-.077.099-.056.044-.078.11-.099.022-.11.088-.077 0-.11.033-.033.045-.11.034l-.11.11q-.023.01-.056.01t-.066.012q-.055.022-.11.033-.044.022-.1.044-.054.022-.11.033-.044.011-.12.011-.144.066-.177.066-.022 0-.055.011-.122.044-.133.033-.01 0-.033.011-.077.033-.187.033-.055.011-.11.011-.044.011-.122.011l-.132.023q-.055.022-.1.022-.11 0-.153-.011-.045 0-.1.022-.143.055-.198.033-.055-.011-.132-.011-.1-.044-.11-.033-.012.01-.045 0-.099-.033-.11-.045-.011 0-.033-.01-.154-.012-.243-.078-.077-.066-.198-.088-.033-.088-.121-.132-.077-.033-.1-.121-.044-.023-.077-.056-.033-.022-.077-.044-.066-.066-.1-.077-.021 0-.021-.033-.066-.022-.1-.077-.11-.055-.132-.088-.01-.033-.044-.077-.088-.056-.11-.089-.077-.12-.088-.143-.011-.022-.033-.044l-.066-.143q-.011-.011.01-.033-.077-.122-.088-.21.011-.11.011-.132-.01-.011-.01-.033.021-.11.032-.122 0-.01.023-.033.01-.088.022-.11.01-.022.033-.044.077-.1.088-.1.01 0 .022-.01.022-.022.044-.055t.066-.022q.055-.078.066-.089.011-.01.033-.01.067-.056.1-.11.055 0 .066-.034l.044-.044q.088-.033.132-.1.165-.076.177-.098-.056-.067-.155-.078-.088-.01-.121-.088-.121-.066-.165-.088-.045-.011-.067-.033-.055-.11-.077-.132-.022-.033 0-.055-.055-.122-.055-.177-.01-.055-.01-.143-.023-.066.01-.166.033-.132.044-.132.011-.01.011-.033.033-.066.055-.176.044-.089.11-.177.11-.088.133-.11.022-.033.044-.055.066-.066.132-.11t.1-.133q.132-.055.165-.077.033-.033.066-.055.066-.022.132-.022.066-.011.122-.066-.078-.088-.122-.11-.033-.033-.066-.055-.066-.045-.088-.089-.066-.088-.077-.099-.022-.022-.044-.055-.011-.044-.055-.066-.056-.088-.056-.11-.055-.067-.055-.089.011-.033 0-.066-.055-.066-.066-.11-.01-.044-.033-.077 0-.143-.022-.143-.022-.011-.022-.034-.011-.099 0-.176.011-.088.011-.198-.011-.122 0-.122.011-.01.011-.033.011-.11.033-.132.022-.033 0-.066.077-.077.11-.165.067-.11.089-.177.022-.044.055-.077.044-.033.066-.077.066-.077.077-.1.011-.033.011-.066.088-.044.11-.088.133-.033.122-.055v-.044q.11-.033.198-.1l.077-.076q.033-.033.088-.078.078-.022.089-.033.01-.022.044-.022l.143-.066q.11-.077.165-.088.044-.022.088-.033.045-.011.067-.055.055 0 .088-.011l.088-.022q.055-.033.132-.055.022 0 .066.01.045.012.1 0l.165.023q.066.01.11.01.055-.01.11.012.1.044.122.044.022-.011.044-.011.077.022.077.044.011.01.044.01.066-.043.066-.076.011-.033.011-.066v-.11q0-.067.022-.122.033-.121.078-.165 0-.1.044-.177.044-.077.088-.088.022-.077.077-.11.066-.033.088-.088.066-.022.11-.055.045-.033.1-.078.187.033.22.022.121-.022.188-.022.066-.01.12 0 .023.011.056.033.033.012.077.034.044.022.066.055.033.022.077.055.078.055.078.077.01.022.033 0-.011.055.022.066.044.011.066.044.033.055.055.077.022.011.044.044.055.122.055.188.011.066.011.088-.033.132-.066.176-.033.045-.055.1zM18.47 6.958q.044-.055.066-.077.033-.022.055-.044.066-.077.11-.066.044 0 .077-.022.089-.066.11-.11.023-.045.067-.067.022-.132.044-.132.022-.011.022-.044.01-.1 0-.121-.011-.022 0-.044 0-.033.022-.067.022-.033.022-.055-.044-.11-.033-.154.022-.055 0-.11.011-.1 0-.133.044-.055.022-.099-.011-.055-.022-.143 0-.033.011-.077.022-.055.022-.066-.055-.056-.044-.078.022-.022.01-.044Q19 5.183 19 5.14q0-.055-.011-.099-.011-.088-.022-.1-.011-.01-.011-.032-.022-.055-.033-.066 0-.023-.033-.045-.022-.099-.044-.143-.023-.055-.023-.121-.066-.077-.077-.199-.044-.11-.044-.12-.044-.09-.066-.1-.011-.022 0-.055-.088-.088-.121-.088-.088-.045-.133-.056-.033-.022-.088 0-.055-.066-.077-.066-.01-.01-.01-.033-.144.055-.232.044-.089.066-.188.122-.088.066-.132.088-.132.066-.165.132-.023.066-.1.088-.044.066-.044.1 0 .022-.01.044-.067.088-.067.099.011.01 0 .022-.022.066-.044.143-.022.066.01.155-.032.022-.043.055 0 .033-.011.077 0 .099-.022.11-.011.011-.011.033v.143q.01.023.01.045-.032.209.023.264-.022.055-.011.088.022.033.033.078.01.11.022.154.01.044.022.077.022.077.033.088.011.011.022.033.022.055.022.133 0 .066.022.132.022.033.044.044.022.011.044.044.011.022.011.055t.011.066q.011.022.033.055l.045.067q.022.055.033.088l.055.055q.055 0 .088.033.033.022.055.044.199.132.364.1.165-.045.342-.056zm-.496 1.918q-.177-.022-.386 0-.21.022-.397.056-.033.022-.055.033l-.044.044q-.055 0-.089.033-.033.033-.099.022-.066.088-.154.088-.066.088-.143.11-.022.055-.067.077-.033.034-.055.078-.066.066-.077.088-.01.022-.044.022l-.066.11q.01 0 0 .011-.077.066-.088.088 0 .033-.033.022 0 .044-.022.067-.022.033-.045.088-.01.033-.01.066 0 .044-.012.066-.033.088-.033.121.011.033.011.066-.033.155-.033.232.011.077.033.132.011.033.033.066.022.033.011.078.056.022.067.077.022.066.077.099l.132.066q.044.033.066.077.033.044.055.088.044.022.078.034.033.022.088.022.022.077.088.11.055.033.121.033.077.01.155.033.033 0 .066.011t.077.011q.044 0 .077-.011h.077q.055 0 .1.011.043.011.099.011.099-.011.11-.011.01.011.022.011.077-.011.1 0 .021.011.043 0 .121-.033.166-.033.044.011.099 0 .077-.011.132-.033.066-.011.11-.022.044-.022.078-.022.033.01.077 0 .11-.077.143-.077.033 0 .055-.011.088-.022.165-.045.078-.022.144-.066.121-.033.154-.044.044-.01.077-.022l.166-.077q.077-.11.088-.11.01 0 .022-.011.077-.1.088-.122l.044-.044.044-.066q.022-.022.033-.044.089-.066.1-.088.022-.022.01-.066.067-.066.056-.088v-.033q.044-.122.055-.144l.022-.066q.01-.033.01-.055.012-.044.012-.088t.022-.1q-.066-.154-.055-.187-.044-.033-.055-.1-.011-.065-.066-.087-.022-.088-.044-.133-.023-.044-.045-.066-.11-.088-.132-.099-.01-.011-.033-.022-.055-.022-.1-.044-.032-.022-.065-.055-.044 0-.077-.011-.034-.011-.056-.022-.132-.055-.187-.044-.132-.033-.21-.033-.044-.045-.132-.045l-.22-.01h-.188q-.055 0-.099-.023-.033-.01-.077.011-.132-.022-.143-.01 0 .01-.022.021zm4.77-5.831q-.033.099-.033.242l-.044.187q-.011.045-.011.133 0 .088-.012.11-.01.011-.01.044.01.066 0 .088-.012.011-.012.033v.1q.011.044-.01.088.088-.044.099-.066.01-.022.022-.055.066-.11.088-.133l.088-.088.044-.044q.066-.077.077-.11.022-.044.089-.033.066-.122.12-.144.067-.022.078-.077.077-.022.1-.033.032-.01.076-.033.11-.033.133-.044.022-.011.055-.022.121-.033.143-.044l.066-.022q.1.01.133 0 .044-.022.066.022h.11q.022 0 .033.01.088-.01.165 0 .078.012.155.012h.055q.044-.011.066.022.066-.022.11 0 .055.022.088.044.1.044.155.055.055 0 .066.055.066-.01.088.011.022.022.077.011.122.066.144.122.066-.023.088.022.022.033.077.033.033.066.055.077.022.01.044.033.022.066.033.121.044.121.055.121.022 0 .022.022l.056.133q-.011.088.022.143.033.044.055.132.01.122.033.177.022.055.022.11v.474q.01.077 0 .143-.011.067 0 .122 0 .044.01.077.012.033-.032.055.044.121.033.154-.011.033-.033.066.022.045.033.089.022.044.01.12l-.021.078q-.011.033-.011.066.01.11 0 .155v.088q.01.121.01.176 0 .055.023.121-.011.033-.022.056-.011.022-.022.066.022.11.01.12-.01.012-.01.034.01.088 0 .11v.044q0 .044.01.078.023.033.023.077-.011.11-.011.143.01.022.01.066v.154q.012.034.012.067 0 .022-.011.066 0 .033.022.055-.033.033-.011.088.022.055.022.11 0 .077.01.144.023.055.023.11.011.066.011.121.011.044.066.077.166-.022.22.011.056.022.078.1.154.11.132.165-.022.055-.077.077-.055.033-.132.033-.067 0-.11-.044-.122.033-.166.022-.033-.01-.055-.022-.121-.066-.132-.044 0 .022-.033.011-.056-.022-.122-.022h-.143q-.066 0-.132-.011t-.144-.011q-.198.01-.286.033-.077.022-.21.033-.044.022-.121.033-.055.011-.1.022-.032.011-.087.011-.022-.01-.067-.055-.044-.044-.044-.077 0-.066.055-.11.067-.044.089-.1h.143q.1-.077.11-.088.022-.01.044-.01-.022-.133.066-.133-.033-.022-.033-.055.011-.033.011-.066v-.11q.011-.023.011-.034v-.12q.011-.012.022-.034 0-.143-.022-.143-.01-.011-.022-.033.022-.044.022-.067 0-.033.022-.12 0-.122-.033-.221-.022-.1.011-.155-.01-.033-.01-.077.01-.055.032-.077-.022-.022-.01-.055.022-.033.01-.077-.033-.1-.022-.133.022-.044.022-.099v-.055q.012-.033-.01-.066.022-.132.022-.154.01-.022.01-.055-.01-.045-.01-.067.01-.022.022-.055.01-.132-.011-.132-.023-.011-.011-.033.055-.077.033-.188-.011-.12.022-.231 0-.077-.011-.1-.011-.032 0-.054.022-.1.022-.177.01-.088.01-.132.012-.154-.01-.243v-.33q-.011-.078 0-.11.01-.045-.033-.067.022-.077-.011-.099-.022-.033-.011-.11-.034-.11-.056-.121-.022-.023-.033-.045-.088-.198-.187-.286-.022-.022-.055-.033-.033-.022-.044-.055-.066.01-.11-.011-.045-.022-.089-.033-.044-.023-.088-.034-.044-.01-.1.011-.187-.022-.253 0-.066.011-.12-.033-.023.022-.067.022-.044 0-.055.034-.1.022-.188.055t-.132.12q-.132.067-.143.09 0 .021-.022.043-.088.077-.088.088.01.011-.011.022-.056.045-.056.078 0 .022-.033.022-.055.132-.077.165-.01.033-.033.088-.022.033-.022.066 0 .022-.011.055-.077.133-.132.166-.011.077-.011.132.01.055-.033.044 0 .055-.033.088l-.045.045q.011.132 0 .165 0 .033.011.055.023.132.011.154v.033q0 .045.012.089.01.033 0 .066-.034.088-.023.121.011.022-.022.044.033.066.045.1.022.021.022.054-.011.078 0 .089.01.01.01.033.012.055-.01.121-.011.066-.011.132.01.144.022.166.01.022.01.044.012.055.012.165 0 .033-.011.066 0 .033.01.066.012.067.023.089.01.022.01.044 0 .165-.01.22v.121q.033.155.022.221 0 .066.01.121.012.044.023.1.022.044.033.088-.022.077-.022.11 0 .022.033.033-.022.11-.022.132v.033q0 .11.01.122.012.01.012.033.022.143.044.176.033.022.055.066.11.055.11.066 0 .011.022.011.056.011.089 0l.099-.022.165-.033q.066-.022.121-.01.056.01.089.043.033.033.088.022 0 .055.033.089l.055.055q-.022.044-.055.088-.022.033.022.088-.055.022-.088.011-.033-.01-.077-.01l-.155-.023q-.077 0-.154.011h-.077q-.033.011-.077.022h-.122q-.088-.01-.143.011-.044.022-.1 0-.098.033-.143.033-.022.022-.066.022-.033 0-.055.022-.077-.01-.11-.01-.022.01-.033-.023-.022.022-.055.022-.033.011-.055.033-.122 0-.199.011-.077.011-.187-.01-.11.054-.144.043-.033-.01-.066 0-.044.011-.066.034-.022.033-.055.055-.121.033-.187.022-.055 0-.1.055-.055-.022-.099 0-.044.033-.099.033-.044 0-.088-.022-.033-.022-.088-.044-.033-.088-.033-.11.01-.023.01-.045.155-.11.221-.143.066-.022.165-.033l.089-.044q.044-.022.099-.044.044-.022.077-.044.033-.033.088-.044.022-.033.033-.067.022-.033.055-.044.011-.055.033-.088.033-.044.045-.099-.011-.088 0-.1.022-.021.022-.043.01-.044 0-.078-.011-.044-.011-.077.022-.121.01-.121v-.022q-.021-.11-.01-.143.01-.044 0-.077l-.023-.089q.012-.01.012-.033 0-.044-.023-.077-.01-.044-.01-.088v-.188q.01-.066.01-.11 0-.033-.022-.077-.01-.044.033-.066l-.033-.21-.022-.132q0-.132.011-.154.011-.022.011-.044l-.01-.11q.01-.023.01-.034 0-.055-.022-.11-.01-.055-.01-.121.01-.033.01-.088 0-.055.011-.077.022-.023.011-.122-.01-.099-.01-.143 0-.066.01-.132.011-.067-.033-.122l.033-.242q.022-.088.011-.21 0-.033-.01-.066-.012-.033-.012-.077V4.5q0-.044-.033-.088.044-.056.011-.144-.033-.132-.055-.176l-.11-.22q-.033-.067-.077-.11-.055.01-.077 0l-.044-.045q-.078.044-.155.044-.077-.01-.165-.033-.011-.033-.055-.033t-.066-.033q-.078-.033-.1-.033-.01 0-.033-.022 0-.055-.01-.088-.012-.044.01-.078.077-.088.144-.088h.077q.033-.01.055 0 .066.011.11.022t.11.011q.055 0 .11-.01.067-.023.122.021l.121-.044q.077-.033.11-.022.044 0 .067-.044.022.011.12-.01.111-.056.155-.067.077-.044.121-.066.11-.044.177-.066.077-.044.088-.055l.033-.034q.044-.033.077-.033t.055-.022q.144.077.166.11zm9.201 1.895q.044.023.099.078.033.11.044.176.022.066.044.122-.033.11-.011.11.033 0 .044.033.022.176.022.253.011.067.033.144.022.055.022.077t.011.044l-.022.121v.088q.011.045-.01.078-.045.11-.034.12.011.012 0 .034 0 .044-.022.077-.01.033-.033.088 0 .1-.022.144-.011.033-.011.088-.022.033-.044.077t-.044.077q-.044.088-.055.132 0 .034-.044.056-.022.055-.011.077.01.01.01.044l-.088.088q-.033.033-.044.121-.088.166-.165.232-.066.055-.11.143-.1.11-.144.132-.033.011-.044.067-.055.11-.088.11-.022 0-.022.022-.11.055-.11.1-.077.054-.077.065 0 .011-.011.022-.045-.01-.067.022-.022.033-.055.067-.121.066-.165.11l-.1.099q-.132.022-.143.011 0-.011-.022 0-.22.033-.286.066-.155.033-.166.011 0-.01-.022-.01-.132.032-.143.043-.011.011-.033.022h-.066q-.033.011-.055.011-.089-.01-.122 0-.022.011-.055.011-.099-.01-.121-.022-.011 0-.055.022-.066.033-.11.022h-.089q-.088.011-.099 0 0-.01-.022-.022-.1 0-.143-.044-.033-.033-.1-.01-.021-.034-.055-.056-.022-.01-.033-.055-.198-.055-.297-.1-.1-.043-.188-.098l-.099-.1q-.077-.088-.1-.099-.021-.01-.032-.033-.044 0-.055-.022-.011-.033-.066-.022-.067-.066-.067-.077 0-.011-.022-.022-.022-.022-.088-.122-.022-.033-.044-.055t-.022-.055q-.121-.088-.143-.121-.044-.033-.077-.066-.023-.033-.056-.044-.033-.1-.066-.122-.022-.022-.044-.066-.01-.099-.044-.121l-.044-.044q-.022-.154-.055-.132 0-.044-.011-.067-.011-.033 0-.088-.066-.099-.055-.22.01-.121-.011-.243-.011-.088-.033-.121-.022-.033-.022-.088-.022-.1 0-.21.022-.12.022-.22.01-.11-.011-.166-.011-.055-.033-.099.077-.066.066-.154 0-.088.066-.143 0-.089.033-.144.033-.055.033-.143.055-.088.066-.1.022-.021.011-.043.055-.078.066-.089l.033-.033q.066-.132.089-.165.022-.044.055-.1.044-.098.077-.12.044-.023.044-.078.121-.088.21-.21l.088-.098q0-.011.01-.022.1-.055.133-.055.044-.012.066-.067.11-.044.132-.077l.044-.066q.11-.066.166-.088.055-.033.088-.088.077-.011.165-.078h.11q.056-.01.078-.044.154-.044.176-.066.033-.033.1-.01.032-.034.12-.067.133-.01.155-.022.022-.011.044-.011.154.055.21.055.055-.01.077.044h.088q.044-.01.1.011.087.055.098.055.022-.01.044 0 .056.022.1.044.055.011.11.045.033-.034.055 0 .033.033.066.01.166.067.21.1.044.033.077.066.088 0 .121.044t.121.033q.11.066.122.121.022.044.11.044.088.067.1.089.01.01.043.01l.1.1q.021.022.055.044.055.055.055.077 0 .011.022.022l.088.1q.01.01.01.044.1.066.144.099.055.033.055.121l.089.1q.022.12.044.154.033.033-.011.055zM29.43 3.586q-.088.022-.154.022-.122.044-.144.066-.01.022-.044.044-.088.066-.11.066-.066.11-.077.11-.011 0-.033.022-.066.056-.077.078 0 .01-.011.022-.022.044-.067.077-.033.022-.044.077-.077.077-.088.11-.01.033-.033.055.011.089-.033.133-.033.044-.044.11-.044.143-.077.176-.033.022-.033.1l-.055.132q-.045.121-.067.165l-.022.088-.022.067q0 .033-.022.055.022.022.011.066-.01.033-.01.055-.023.154-.034.21 0 .043-.022.088l.022.154q.011.077-.01.132-.023.121 0 .188.021.055.032.11 0 .033-.01.066-.012.033 0 .055.021.11.01.121 0 .011.011.033.011.089 0 .133 0 .033.011.066.022.1.011.132v.044q0 .033.022.066.022.034 0 .067.078.055.033.176.045.033.045.088.01.044.033.1.066.12.055.143v.033q.01.055.033.088.033.033.055.077-.033.055 0 .088.033.022 0 .066.132.078.187.265.033.022.055.033.034.011.078.033-.011.066.033.088.055.022.066.078H29q.066 0 .121.022.166.022.22.01.067-.01.144 0 .044 0 .088.012.055 0 .078-.011.066.01.099.01.044-.01.088-.01.055-.011.1-.022.043-.011.076-.011.144-.022.199-.067.055-.044.121-.022.033-.066.154-.055.056-.033.067-.055.01-.033.055-.033.044-.077.044-.088l.022-.044q.099-.11.11-.11.022-.11.033-.122l.077-.121q.022-.066.022-.132.011-.077.055-.11 0-.122-.01-.144v-.044q.066-.11.066-.132 0-.033.022-.066-.022-.122-.011-.155.022-.044.022-.088.01-.022 0-.055v-.066l.022-.11q.01-.067.01-.133 0-.033-.01-.066-.011-.033 0-.066.022-.132.01-.143v-.332q0-.1-.01-.165-.011-.067.033-.122-.033-.022-.033-.066 0-.044-.022-.077.022-.066.022-.154 0-.1-.055-.155 0-.132-.011-.154-.033-.11-.045-.132 0-.033.023-.066-.045-.078-.067-.166-.033-.088-.01-.132-.034-.033-.056-.11-.022-.022-.044-.055-.01-.034-.01-.067-.078-.12-.1-.12-.022-.012 0-.045-.077-.077-.1-.088-.021-.011-.032-.044l-.144-.1q-.077-.055-.121-.055-.044-.01-.066-.044-.055.022-.077.022-.022-.01-.055-.033l-.21-.044q-.044-.022-.066-.1-.077-.01-.143-.076-.066.01-.1-.011-.022-.022-.077-.022z"/>
<path fill="#fff" d="M34.321 3.706q.034.033.034.1 0 .065.022.087-.011.11 0 .199.01.077.01.165-.01.044 0 .1.012.044.012.066-.011.066-.011.099t-.022.077q.033.077.022.1-.011.01-.011.021.022.077.01.122v.077q.034.055.045.176.01.121-.022.199.01.12.022.12.01 0 .01.012.012.099-.032.121.055.077.033.21-.022.132.01.22v.22q0 .067-.021.11.033.056.033.133 0 .077.01.176.012.133-.01.199 0 .11-.011.121v.033q.033.144.01.188-.01.033.034.055-.066.121-.055.132.022.011.033.033.022.055 0 .132-.011.078.01.133-.065.121-.032.121.033-.011.022.022 0 .088.01.1.023.01.012.054l-.011.144q.01.033.033.066.022.022 0 .055.022.044.055.077t.055.088q.11.066.11.1 0 .022.033.022.11-.022.188.01.077.034.198.045.088-.044.1-.066.01-.023.044-.045.044.022.066 0 .022-.022.077-.022.066.022.066.056.011.022.044.01v.089q0 .033.011.088 0 .033-.044.066-.044.044-.033.066-.055.044-.132.077-.066.033-.133-.022-.132.011-.231-.01-.088-.023-.187-.034-.056-.01-.122-.01-.055.01-.088-.034-.088 0-.132-.044l-.121.022q-.056.022-.133.022l-.077-.022q-.033-.01-.077-.01-.066 0-.143.01-.067.022-.11-.033-.045.011-.089.011-.044.011-.066-.011-.033.022-.077.022-.033.011-.055.033-.089-.055-.22-.033-.122.022-.21.066h-.088q-.045 0-.1.011-.088.044-.11.033h-.033q-.11.033-.154.022-.033-.01-.077.011-.034.011-.078.033-.055.034-.11.023-.044-.023-.066-.045-.033-.022-.077-.044-.011-.033-.011-.066t-.022-.055q.022-.033.066-.055.044-.022.088-.055.088.022.154 0 .067-.022.133-.033.044-.011.077 0 .044 0 .088-.011.088-.044.132-.044.055-.011.11-.033.1-.11.133-.122.044-.01.066-.033.033-.033.033-.066.011-.044.055-.066-.01-.055.011-.088.033-.044.033-.088.011-.089 0-.155-.01-.077.022-.143.022-.066.011-.088-.01-.033.011-.078 0-.022.011-.055.022-.033.045-.055-.023-.033-.012-.066.012-.044.012-.077 0-.044-.012-.066-.01-.033-.01-.077 0-.033.01-.067.012-.033.012-.088 0-.044-.012-.077-.01-.044-.01-.077 0-.044.01-.077.012-.044.012-.088-.034-.089-.023-.11.011-.034.011-.056 0-.121-.01-.154-.012-.044-.012-.077.022-.088.011-.1-.01-.022-.01-.044.01-.132 0-.22v-.176l-.023-.1q-.01-.055-.01-.099.01-.1 0-.132l-.023-.088.011-.133q.011-.01.011-.022-.01-.11-.022-.121v-.022q-.033-.176-.022-.276v-.187q0-.033-.01-.066-.012-.044-.012-.077 0-.056.011-.122t0-.143q0-.066-.01-.1-.012-.043-.012-.076l.022-.11q.011-.067.011-.122-.01-.11 0-.121.011-.011.011-.033-.01-.122-.01-.166.01-.044 0-.099-.023-.088 0-.154V3q.01-.033.01-.055.011-.055 0-.099 0-.044.011-.11.011-.044 0-.077 0-.044.033-.066-.022-.144.011-.177-.022-.231-.044-.353-.022-.132.022-.253-.022-.121-.022-.265 0-.055.011-.099.011-.044-.01-.088.021-.033.01-.077-.01-.055 0-.133-.022-.11-.022-.132.011-.033.011-.066-.01-.077-.033-.088-.022-.022 0-.055-.077-.011-.187.01-.11.012-.166.067-.044-.022-.088-.011-.033.01-.066.033-.088-.022-.198 0-.11.01-.177-.044-.143-.022-.165-.077-.044-.21.1-.199.142 0 .23.055.034-.022.078-.033.044-.01.066-.033.121.022.165.022.044 0 .078-.01.044-.012.077-.034.044-.022.099 0 .121-.044.21-.066.088-.022.12.01.023-.021.045-.032l.066-.033q.077-.033.1-.033.032 0 .054-.011.033-.011.055-.033.033-.022.078-.022.077-.078.12-.089.122-.11.144-.12.022-.012.044-.034.177.022.21.132V.4q.01.022.01.066.012.044-.01.088-.011.044-.011.1 0 .076-.011.132-.022.11 0 .22v.077q0 .033-.022.077.022.044.01.1 0 .055.012.12v.155q.01.088-.022.144.01.033.01.077.012.044-.021.077.01.11 0 .143-.012.022-.012.055.023.077.012.11v.056q0 .033.01.077.012.033-.022.066.023.022.023.066 0 .033.01.066-.01.122-.021.177 0 .044.022.066-.034.099-.022.121.022.011.022.033-.022.143-.022.166.033.165 0 .297v.188q0 .055.01.12z"/>
<path fill="#fff" d="M36.853 2.163q-.078.01-.122-.011-.033-.033-.077-.056-.033-.132-.077-.132 0-.033-.022-.055l-.044-.066q-.077-.132-.11-.176-.033-.056-.089-.089-.066-.077-.077-.088-.01-.022-.044-.01-.088-.078-.121-.1l-.044-.044q-.033-.022-.044-.055-.011-.044-.055-.044-.067-.11-.133-.177.011-.055-.01-.088-.023-.033-.045-.088l-.044-.1q.011-.01.022-.033 0-.022-.01-.066 0-.055.021-.099.1-.121.077-.198.055-.055.089-.1.088-.088.12-.11.034-.022.078-.055.044.011.077 0 .033-.022.088-.01.077.032.089.032.022-.01.033-.01.12.087.187.12.066.022.121.044.122.1.122.067t.033-.033q.022-.1.088-.144.077-.044.132-.099.055.011.077-.011.033-.022.066-.033.122-.055.122-.044.01.01.022.01.165-.01.22.012.055.022.121.033.034.077.11.088.023.044.023.088.01.044.044.066.01.122.01.177.012.055 0 .1-.01.12-.043.23-.033.1-.1.177-.088.154-.12.243-.023.088-.11.143 0 .044-.034.066-.022.011-.022.055l-.1.132q-.032.033-.065.056-.067.099-.089.11-.01.01-.01.044-.089.11-.11.132-.023.022-.023.066-.055.022-.077.055-.022.022-.077.022zm.782 1.389q-.022.143-.033.187v.077q-.022.133-.033.155v.165q-.01.033 0 .055.011.022-.01.066-.045.121-.034.144.022.022.022.044-.022.143-.01.198.01.055.01.11l-.022.066q-.01.023-.01.056 0 .055.01.12.011.056.011.133-.01.1 0 .11.011.011.011.033 0 .1.011.11.011 0 .011.023 0 .044-.022.088-.01.033 0 .077 0 .055.011.1.022.043-.01.099.021.11.032.132.011.022-.01.044.043.077.032.176-.01.1-.033.21.044.077.022.176-.01.088.011.166 0 .033.011.066.022.022.033.055-.033.055-.022.088.022.033 0 .1-.01.143 0 .242.011.099-.022.176.011.022.011.066.011.033.033.055-.022.11-.022.21.011.1-.044.187.055.122.033.133.011.12.033.176.022.044.044.1.056.065.1.076l.066.033q.022 0 .077-.01h.088q.033 0 .066.044.055-.023.089-.067.033-.044.088-.044.055 0 .077.033t.077.033q.022.045.044.067.033.022.044.066-.022.033-.044.077-.01.033-.044.066-.044.011-.066.022-.022.022-.066.044-.144-.055-.287-.044-.132.022-.275-.033l-.243.011q-.121.011-.176.011-.044.011-.067-.011-.077.022-.099.011-.01-.011-.033-.022-.143.044-.154.011-.066.022-.166.022-.099.011-.187.011h-.11q-.055 0-.088-.022-.044.022-.089.011-.044-.011-.099.011-.132.033-.143.033-.011 0-.044.022-.022.011-.066.022-.044.011-.067.033-.11 0-.176.033-.066.045-.187 0-.022-.055-.077-.088-.045-.033-.011-.121.099-.055.143-.055h.066q.132-.055.165-.044.033 0 .055-.011.089-.066.11-.066.034-.011.078-.034.121-.055.154-.099.033-.044.088-.055.022-.055.067-.11.044-.055.055-.132.01-.1.022-.11.01-.023.01-.045.012-.099 0-.187 0-.1.056-.177-.022-.022-.033-.088 0-.066.033-.088-.033-.1-.033-.11.01-.011.01-.022-.032-.1-.021-.11.01-.011.01-.034-.01-.066 0-.132.012-.066.012-.132-.011-.1-.033-.199-.011-.099-.011-.187-.011-.055 0-.1.01-.043-.011-.076-.033-.133-.011-.254.033-.121.033-.231 0-.056-.022-.11-.022-.067.022-.1-.044-.121-.033-.121.022 0 .022-.022t-.011-.055q-.011-.033-.011-.066v-.078q.01-.033.055-.055-.022-.055-.022-.143 0-.1-.011-.176-.011-.122-.022-.144 0-.033.022-.066-.033-.154-.033-.165v-.122q-.011-.11-.022-.12-.011-.023-.011-.056.01-.077 0-.088-.011-.022-.011-.044.01-.088-.011-.122-.011-.033-.011-.077h-.1q-.044 0-.077-.022-.077.033-.165 0-.1.011-.11-.022-.011-.033-.045-.055-.044-.022-.066-.01-.01.01-.055.021-.088-.11-.121-.11-.033-.011-.022-.055.044-.066.11-.11.033.01.066.01h.055q.122.012.133 0 .01-.01.033-.01.033-.012.077-.012h.077q.077.012.088 0 .022-.01.044-.01.11.01.11 0 .012-.012.023-.012.132.011.154 0 .022-.022.044-.022.199-.022.243-.055.088.011.088 0 .01-.01.033-.01.121-.023.154-.034.122-.044.144-.022.088-.055.099-.033.01.022.033 0 .033-.044.121-.033.088 0 .143.011.067.154.033.22-.022.056-.055.078zm5.177.308l.056.11q.066.11.077.155l.022.066q.022.044.033.077.022.033.033.066.01.056 0 .122-.011.066.044.099.011.055 0 .077 0 .022.022.077 0 .121.011.133.011.01.011.022-.011.066 0 .11t.011.077q0 .022-.01.055v.066q0 .055.01.088.011.034.033.067-.033.12-.022.165.022.044.022.1-.01.131-.01.176.01.033-.012.055.011.099 0 .11-.01.01-.01.033.01.265-.045.386.033.1.011.132-.011.022-.011.044 0 .066.011.122.011.055-.033.099.022.088.011.099v.033q.011.088-.011.132-.011.044-.011.077v.122q.01.077-.011.143 0 .088.01.165.023.067-.01.11.033.045.01.1-.021.055.034.1 0 .098-.022.242-.022.132 0 .242.022.055.044.088.022.022.044.067.044.01.11.022.078 0 .144-.011h.088q.055-.011.088-.023.022-.022.044-.033.033-.022.066-.022.089-.11.11-.143l.067-.066q.01-.143.044-.143-.011-.122.066-.155.143-.01.143.033.077.11.122.11-.022.023-.045.056-.022.033-.022.088-.099.132-.132.198-.033.055-.1.1-.021.088-.054.132l-.077.1q-.11.021-.21.054-.088.033-.231.022-.122.011-.243-.033-.11-.044-.21-.077-.054-.022-.077-.055-.01-.044-.066-.044-.055-.1-.077-.11l-.044-.045q-.011-.077-.088-.099l-.066-.11q-.022-.066-.066-.121-.011-.066-.034-.122-.022-.055-.022-.132l-.066-.11q-.022-.066-.044-.121-.033.066-.055.077l-.033.033q-.066.143-.077.154-.077.088-.077.1 0 .01-.011.032-.044.078-.1.1 0 .055-.033.077-.022.022-.033.066-.066.022-.11.088-.033.055-.066.133-.033 0-.055.022-.011.01-.066.01-.022.034-.067.067-.033.022-.088 0-.044.077-.165.077-.165.033-.232.066-.055.044-.12.011-.056.044-.133.055-.077.011-.132.044-.1-.044-.11-.033-.012.022-.034.033-.055-.022-.099-.01-.044.01-.1-.034-.054 0-.11-.01-.044 0-.099-.012-.12-.033-.176-.077-.055-.033-.121-.011-.089-.033-.144-.077-.055-.044-.143-.066-.088-.1-.11-.122-.011-.022-.033-.022l-.077-.143q-.1-.077-.1-.088.011-.011 0-.022l-.12-.177q-.023-.033-.056-.055l-.044-.044-.033-.165q0-.066.01-.121-.01-.133-.021-.177-.011-.044-.011-.1l.022-.11q.022-.065.033-.12.01-.067 0-.11 0-.045.033-.078-.011-.088.022-.121.044-.033.022-.088.066-.023.088-.11.022-.1.1-.122.01-.077.055-.11.055-.044.077-.121.055-.023.077-.056.033-.044.1-.044.065-.099.076-.099.022-.011.022-.033.122-.022.144-.044.033-.022.055-.033.11-.033.121-.044.011-.011.033-.011.143-.033.22-.055.078-.022.133-.033.088.033.1.01.01-.022.032-.033.055-.022.088-.022.033 0 .11-.01.11-.023.133-.012.022.011.044 0 .066-.01.121-.044.066-.033.122-.044.033-.01.066 0h.066q.121-.01.154-.01.044-.012.066-.012.055-.01.1-.033.044-.022.099-.033l.11.011q.011-.011.033-.022.1-.022.187.033.034-.022.067-.022t.066-.022q-.033-.187-.011-.254.022-.077.022-.154 0-.022-.011-.055v-.066q-.044-.155-.044-.166-.011-.033-.011-.066t.022-.088q-.033-.11-.022-.143.01-.044.01-.077-.032-.11-.032-.133.01-.033.01-.055-.01-.055-.021-.088-.011-.044.01-.088-.021-.044-.032-.088-.011-.045-.034-.089-.055-.154-.088-.165-.033-.022-.044-.077-.055-.022-.077-.044-.022-.033-.044-.055-.132-.078-.176-.067-.045 0-.067-.033l-.165-.044q-.033-.01-.044-.044-.143-.033-.298-.01-.044.01-.077.032-.022.022-.066.033-.055.011-.121.011-.055-.01-.11.011-.045.011-.078.044-.033.023-.088.023l-.088.066q-.033.022-.1.033-.23.055-.286.099-.077.077-.143.1-.055.043-.088.076-.023.022-.045.055-.066.133-.099.221t.022.176q.033.166.055.243.022.077.067.143.01.033.055.044.044 0 .044.044.066.022.121.056.066.033.143.033.044 0 .077-.022.034-.023.089 0 .077-.067.088-.067.01 0 .022-.01.022-.023.044-.056.033-.033.033-.066 0-.11-.165-.143-.022.055-.033.11-.011.055 0 .121-.078.022-.144.011-.066-.022-.12-.044-.023-.044-.023-.121.011-.088.033-.143.066-.055.066-.078l.022-.044q.077-.033.133-.055.066-.022.088-.022.055 0 .088.033.033.022.088 0 .044.044.077.088.033.034.077.067.023.11.045.242.033.121-.033.21-.023.033-.067.044-.033.01-.055.055-.055-.011-.077.01-.022.023-.066.034-.022.022-.066.033-.033 0-.055.022-.188.033-.331 0-.11-.022-.199-.077-.088-.066-.176-.088 0-.044-.033-.066-.033-.023-.055-.056-.033-.143-.055-.187-.022-.044-.044-.077 0-.077-.022-.143-.044-.078-.022-.133 0-.077.022-.121.01-.165.055-.22.022-.1.044-.11.022-.012 0-.034.077-.066.132-.132.055-.066.121-.121.155-.045.166-.089.055 0 .088-.022.044-.033.1-.033.021-.044.087-.044.078-.01.1-.077.033.055.099.011.077-.044.132-.011.044-.011.055-.033.022-.033.055-.055.044 0 .133-.033.12-.033.12-.022h.034q.143-.022.187-.022.056-.011.078-.011.077.01.11-.011.044-.022.099.033.1.01.121.01.033-.01.055 0 .21.034.298.089.1.055.187.055.155.088.32.1.1.065.1.087 0 .011.021.033l.1.078q.01 0 .022.01.121.078.132.1l.033.033q.077.121.1.132.021 0 .021.033zm-1.367 1.93q-.12.022-.154.055-.033.022-.077.022-.044-.011-.077 0h-.055q-.067.088-.11.088-.045 0-.1.011-.1.044-.132.044-.022 0-.044.011l-.088.044q-.034.011-.067.044-.077.11-.11.144-.022.033-.066.055 0 .044-.022.088l-.022.066q-.055.055-.055.11 0 .044-.011.066-.044.056-.044.078t-.011.033q-.056.066-.067.088v.033q-.088.132-.077.143.022.011.022.055-.022.045-.022.089v.066q-.01.11-.022.121-.01.011-.01.044.021.022.01.066 0 .044.011.1l.022.066q.022.033-.01.066l.076.165q.078.11.078.143 0 .034.01.056l.067.066q.044.022.066.077.1.044.1.066 0 .022.01.044.055 0 .11.022.056.022.122.022.11 0 .143.022.033.011.077-.01.055-.023.144-.012.088 0 .165-.022.11-.055.143-.055.033 0 .055-.01.088-.045.088-.067.012-.022.056-.011.077-.077.099-.132.088-.033.11-.122.022-.099.11-.12.022-.09.066-.122.011-.033.011-.066.012-.033.045-.055.033-.11.044-.155.01-.055.044-.099.022-.022.055-.022.044 0 .066-.022 0-.077-.022-.143-.022-.078-.022-.166V6.86q.011-.044 0-.1-.033-.076-.033-.098v-.056q-.033-.12-.022-.176.01-.055.01-.11-.043-.155-.043-.243.01-.077-.011-.088-.011-.011-.011-.033 0-.055.01-.088.012-.044-.01-.088-.144-.022-.287.01-.143.023-.33 0z"/>
</svg>
