<svg viewBox="0 0 40 40" xmlns="http://www.w3.org/2000/svg"><path d="M35.731 29.714c-1.697 2.641-.208 3.677-2.655 5.675-2.447 1.997-3.217.375-6.174 1.533-2.957 1.16-2.374 2.855-5.551 3.061-3.178.207-2.828-1.55-5.915-2.316-3.087-.766-3.632.942-6.326-.722-2.695-1.664-1.358-2.883-3.396-5.281-2.039-2.399-3.503-1.331-4.686-4.23-1.182-2.898.63-3.114.42-6.23-.21-3.114-2.036-3.094-1.255-6.12.782-3.026 2.378-2.157 4.076-4.798 1.697-2.641.208-3.677 2.655-5.675 2.447-1.997 3.217-.375 6.174-1.533 2.957-1.16 2.374-2.855 5.551-3.061 3.178-.207 2.828 1.55 5.915 2.316 3.087.766 3.632-.942 6.326.722 2.695 1.664 1.358 2.883 3.396 5.281 2.039 2.399 3.503 1.331 4.686 4.23 1.182 2.898-.63 3.114-.42 6.23.21 3.114 2.036 3.094 1.255 6.12-.782 3.026-2.378 2.157-4.076 4.798z" fill="#FFE9C9"/><circle cx="20" cy="20" r="15" fill="#B39469"/><path opacity=".9" fill="#FFE9C9" d="M9 6h4v28H9zm9-2h4v32h-4zm9 2h4v28h-4z"/><path opacity=".7" fill="#FFE9C9" d="M32 5v4H8V5zm4 8.75v4H4v-4zm0 8.5v4H4v-4zM32 31v4H8v-4z"/></svg>